<?xml version="1.0" encoding="UTF-8"?>
<svg id="Layer_1" data-name="Layer 1" xmlns="http://www.w3.org/2000/svg" viewBox="0 0 121.67 121.67">
  <defs>
    <style>
      .cls-1 {
        fill: #fff;
      }

      .cls-2 {
        fill: #00a87e;
      }
    </style>
  </defs>
  <rect class="cls-1" width="121.67" height="121.67"/>
  <g>
    <path class="cls-2" d="M29.29,67.12v-5.29h-5.95v5.29h-2.68v-12.61h2.68v4.95h5.95v-4.95h2.7v12.61h-2.7Z"/>
    <path class="cls-2" d="M35.98,67.12v-12.61h8.92v2.36h-6.24v2.66h6.11v2.36h-6.11v2.85h6.24v2.36h-8.92Z"/>
    <path class="cls-2" d="M48.8,65.34l1.45-2.04c.89.93,2.27,1.7,4.01,1.7,1.47,0,2.19-.68,2.19-1.4,0-2.23-7.26-.7-7.26-5.44,0-2.1,1.81-3.84,4.78-3.84,2,0,3.67.61,4.91,1.76l-1.49,1.97c-1.02-.94-2.38-1.38-3.67-1.38-1.15,0-1.8.51-1.8,1.27,0,2,7.24.66,7.24,5.37,0,2.31-1.64,4.04-5.05,4.04-2.42,0-4.16-.81-5.33-2Z"/>
    <path class="cls-2" d="M65.92,67.12v-10.24h-3.69v-2.36h10.05v2.36h-3.67v10.24h-2.7Z"/>
    <path class="cls-2" d="M75.91,67.12v-12.61h8.92v2.36h-6.24v2.66h6.11v2.36h-6.11v2.85h6.24v2.36h-8.92Z"/>
    <path class="cls-2" d="M95.94,67.12l-2.48-4.48h-1.97v4.48h-2.68v-12.61h5.9c2.63,0,4.23,1.72,4.23,4.06s-1.4,3.42-2.76,3.74l2.83,4.8h-3.08ZM96.2,58.57c0-1.06-.81-1.7-1.89-1.7h-2.82v3.4h2.82c1.08,0,1.89-.64,1.89-1.7Z"/>
  </g>
</svg>